<?xml version="1.0" encoding="UTF-8"?>
<svg xmlns="http://www.w3.org/2000/svg" width="24" height="24" viewBox="0, 0, 24, 24">
    <g id="gallery" opacity=".75">
        <path d="M20 8.111h-10c-2-.007-3 .993-3 2.993v7.007c-.014 2 1 2.988 3 3h10c2-.012 2.994-.994 3-3v-7c-.006-2-1-3.007-3-3zm1 11h-12v-9h12v9zM10 16.167l2.917-2.723 1.94 1.799-1.094.851.73.802 3.424-2.674 2.083 1.556v2.333h-10zM10 15l2.93-3.232 2.538 2.467 2.449-1.568 2.083 1.555v-3.111h-10zM7 5.111h10.146c1.01.009 1.988.261 2.575 1.165.16.246.186.557.279.835h-14v11c-1.559-.373-1.898-1.38-1.986-2.85l-.014-7.157c0-2 1-3 3-2.993zM4 2h10.146c1.01.009 1.988.261 2.575 1.165.16.246.186.557.279.835h-14v11c-1.559-.373-1.898-1.381-1.986-2.85l-.014-7.157c0-2 1-3 3-2.993z"/>
    </g>
</svg>
