<?xml version="1.0" encoding="UTF-8" standalone="no"?>
<svg xmlns="http://www.w3.org/2000/svg" width="24" height="24" viewBox="0 0 24 24">
    <g id="gallery" opacity=".75">
        <path d="M4 8.111h10c2-.007 3 .993 3 2.993v7.007c.014 2-1 2.988-3 3h-10c-2-.012-2.994-.994-3-3v-7c.006-2 1-3.007 3-3zm-1 11h12v-9h-12v9z" id="path5"/>
        <path d="M14 16.167l-2.917-2.723-1.94 1.799 1.094.851-.73.802-3.424-2.674-2.083 1.556v2.333h10z" id="path7"/>
        <path d="M14 15l-2.93-3.232-2.538 2.467-2.449-1.568-2.083 1.555v-3.111h10z" id="path9"/>
        <path d="M17 5.111h-10.146c-1.01.009-1.988.261-2.575 1.165-.16.246-.186.557-.279.835h14v11c1.559-.373 1.898-1.38 1.986-2.85l.014-7.157c0-2-1-3-3-2.993z" id="path11"/>
        <path d="M20 2h-10.146c-1.01.009-1.988.261-2.575 1.165-.16.246-.186.557-.279.835h14v11c1.559-.373 1.898-1.381 1.986-2.85l.014-7.157c0-2-1-3-3-2.993z" id="path13"/>
    </g>
</svg>
