<?xml version="1.0" encoding="UTF-8"?>
<svg xmlns="http://www.w3.org/2000/svg" width="264" height="162" viewBox="0 0 264 162">
	<defs>
		<clipPath id="jagged-edge">
			<path d="M0 0v152l12 10 12-10 12 10 12-10 12 10 12-10 12 10 12-10 12 10 12-10 12 10 12-10 12 10 12-10 12 10 12-10 12 10 12-10 12 10 12-10 12 10 12-10V0z"/>
		</clipPath>
	</defs>
	<g id="screenshot" clip-path="url(#jagged-edge)">
		<path id="background" fill="#fff" d="M263.5 162.25l-263-.5V.5h263z"/>
		<path id="article" fill="#eaecf0" d="M252 162.496V29H48v133.496z"/>
		<path id="logo" fill="#eaecf0" d="M11 22c0-7.732 6.268-14 14-14s14 6.268 14 14-6.268 14-14 14-14-6.268-14-14z"/>
		<path id="sidebar" fill="#eaecf0" d="M38 163.807V58H13v105.807h25z"/>
		<path id="personal-tools" fill="#eaecf0" d="M233 5h26v6h-26V5zm-24 0h22v6h-22zm-24 0h22v6h-22zm-23 0h13v6h-13zm15 0h6v6h-6zm-23 0h6v6h-6z"/>
		<g id="search" fill="#eaecf0">
			<path d="M258 16v4h-92v-4h92m1-1h-94v6h94v-6z"/>
			<path id="icon" d="M168 17h2v2h-2z"/>
		</g>
		<path id="sitename" fill="#eaecf0" d="M38 45v-5H13v5h25z"/>
		<path id="border" fill="#eaecf0" d="M0 0v162h264V0zm1 1h262v150.533l-11 9.166-12-10-12 10-12-10-12 10-12-10-12 10-12-10-12 10-12-10-12 10-12-10-12 10-12-10-12 10-12-10-12 10-12-10-12 10-12-10-12 10-11-9.168z"/>
		<path id="rect78-6" fill="#36c" d="M48.083 29h204.084v20.75H48.083z"/>
		<path fill="#fff" d="M59 34.333h25v10H59v-10zm33.5 0h10v10h-10zm17 0h10v10h-10z"/>
		<path id="*-copy" fill="#36c" d="M73.395 78.467l-1.128 1.968-4.058-2.376a11.313 11.313 0 0 1-.792-.528 3.114 3.114 0 0 1-.623-.672c.24.56.36 1.16.36 1.8v4.656h-2.28v-4.632c0-.32.016-.616.048-.888a3.2 3.2 0 0 1 .264-.84 3.547 3.547 0 0 1-.6.6 6.7 6.7 0 0 1-.746.504l-4.032 2.352-1.128-1.968 4.032-2.352a5.52 5.52 0 0 1 .84-.384c.272-.112.56-.184.864-.216a4.147 4.147 0 0 1-1.703-.624l-4.056-2.376 1.13-1.968 4.056 2.376c.288.176.544.36.768.552.24.192.448.416.624.672a3.914 3.914 0 0 1-.288-.864 5.99 5.99 0 0 1-.073-.936v-4.68h2.28v4.632c0 .32-.024.632-.072.936a3.094 3.094 0 0 1-.216.84 3.18 3.18 0 0 1 .6-.624c.222-.176.47-.352.742-.528l4.032-2.328 1.128 1.968-4.032 2.328c-.27.16-.543.296-.815.408a2.79 2.79 0 0 1-.816.216c.542.064 1.086.264 1.63.6l4.056 2.376"/>
		<path fill="#36c" stroke-width=".381" d="M165.983 90h-4.286v2.143h2.144v10.714h-2.143V105h4.286zm-5.357 0h-4.287v2.143h2.143v10.714h-2.144V105h4.286zm-57.144 0h4.286v2.143h-2.143v10.714h2.143V105h-4.286zm5.358 0h4.286v2.143h-2.144v10.714h2.144V105h-4.286z"/>
		<path id="#-copy" fill="#36c" d="M68.00025425 114.11049996h-3.0597885l-.7875405 3.21195888h3.0454435l.800451-3.21195888m5.0480055-1.48244256l-.1936575.85446342c-.043035.21275796-.1506225.37061064-.3227625.47355804-.17214.1029474-.4375225.1544211-.79973375.1544211h-1.652544l-.79973375 3.21195888h2.194785c.266817 0 .456171.06520002.568062.19560006.120498.12353688.1506225.33629484.0903735.63827388l-.1161945.64856862H69.009425l-1.058661 4.31349606H66.81464c-.1219325 0-.2366925-.02058948-.34930075-.06176844a.8363135.66687038 0 0 1-.25821-.18530532 1.1633795.92767046 0 0 1-.15420875-.27795798c-.025821-.1029474-.0215175-.21618954.0129105-.33972642l.8650035-3.4487379H63.882522l-.86428625 3.5516853c-.068856.2745264-.2108715.47012646-.4260465.58680018-.215175.11667372-.45904.17501058-.73518125.17501058h-1.110303l1.058661-4.31349606h-1.7830835c-.25821 0-.44828125-.06176844-.56877925-.18530532-.120498-.12353688-.1506225-.33972642-.0903735-.64856862l.117629-.64856862h2.5950105l.788975-3.21195888H59.9333435l.180747-.84416868c.043035-.21962112.1506225-.38090538.3227625-.48385278.17214-.1029474.438957-.1544211.800451-.1544211h1.89856075l.8908245-3.58256952c.0502075-.21962112.1793125-.39120012.387315-.514737a1.13110325.9019336 0 0 1 .72227075-.19560006h1.13540675L65.213738 112.6280574h3.0597885l1.047185-4.29290658h1.1232135c.27470675 0 .48988175.0686316.645525.2058948.15420875.1372632.20585075.31570536.15420875.53532648l-.88939 3.5516853h2.69686"/>
		<path fill="#c8ccd1" d="M59 58.333h54v6H59zm20.0005 57.001H240v3H79.0005zM59 135.334h104v3H59zm0-40h39v3H59zm0 30h181v3H59zm56-30h39v3h-39zm-35.9995-20H240v3H79.0005zM59 85.334h181v3H59z"/>
	</g>
</svg>
