<?xml version="1.0" encoding="UTF-8"?>
<svg width="264" height="163" fill="none" version="1.1" viewBox="0 0 264 163" xmlns="http://www.w3.org/2000/svg">
 <mask id="mask0_2340_32807" x="0" y="0" width="264" height="164" style="mask-type:alpha" maskUnits="userSpaceOnUse">
  <path d="m11.51 163-11.51-9.654v-153.35h264v153.35l-10.768 9.654-11.882-9.654-11.139 9.654-12.996-9.654-11.139 9.654-13.738-9.654-11.14 9.654-12.624-9.654-11.882 9.654-12.624-9.654-11.882 9.654-11.986-9.654-11.81 9.654-11.929-9.654-11.803 9.654-12.054-9.654-12.452 9.654-12.586-9.654-12.291 9.654-12.996-9.654-10.768 9.654z" fill="#fff"/>
 </mask>
 <g mask="url(#mask0_2340_32807)">
  <rect width="264" height="189.11" fill="#fff"/>
  <mask id="path-2-inside-1_2340_32807" fill="white">
   <path d="m8.6558 8.6557h179.61v10.82h-179.61v-10.82z"/>
  </mask>
  <g fill="#DADDE3">
   <path d="m188.26 19.475v-0.5h-179.61v1h179.61v-0.5z" mask="url(#path-2-inside-1_2340_32807)"/>
   <rect x="8.6558" y="11.36" width="5.4098" height="5.4098" rx=".54098"/>
   <rect x="19.475" y="11.36" width="5.4098" height="5.4098" rx=".54098"/>
   <rect x="30.295" y="11.36" width="24.344" height="5.4098" rx=".54098"/>
   <rect x="60.049" y="11.36" width="5.4098" height="5.4098" rx=".54098"/>
   <rect x="70.869" y="11.36" width="5.4098" height="5.4098" rx=".54098"/>
   <rect x="81.688" y="11.36" width="16.23" height="5.4098" rx=".54098"/>
  </g>
  <g style="mix-blend-mode:darken">
   <rect transform="translate(127.1 8.6556)" width="10.82" height="10.82" fill="#E8EEFF"/>
   <path d="m131.94 17.134c0 0.1581 0.128 0.2863 0.286 0.2863h0.573c0.158 0 0.286-0.1282 0.286-0.2863v-0.2864h-1.145v0.2864zm2.577-3.4358c0-0.9046-0.606-1.6969-1.479-1.9339s-1.797 0.1401-2.254 0.9204c-0.458 0.7802-0.336 1.7703 0.297 2.4164 0 0 0.573 0.6013 0.573 0.8876v0.2863c0 0.1581 0.128 0.2863 0.286 0.2863h1.145c0.159 0 0.287-0.1282 0.287-0.2863v-0.2863c0-0.2863 0.572-0.8876 0.572-0.8876 0.367-0.3747 0.573-0.8784 0.573-1.4029z" clip-rule="evenodd" fill="#36c" fill-rule="evenodd"/>
   <path d="m129.56 13.903h-0.858v-0.5722h0.858v0.5722zm6.571 0h-0.859v-0.5722h0.859v0.5722zm-5.532-2.5068-0.404 0.4043-0.608-0.6074 0.405-0.4053 0.607 0.6084zm4.646-0.2031-0.607 0.6074-0.405-0.4053 0.607-0.6064 0.405 0.4043zm-2.534-0.4317h-0.573v-0.85934h0.573v0.85934z" fill="#36c"/>
  </g>
  <g fill="#DADDE3">
   <rect x="143.33" y="11.36" width="5.4098" height="5.4098" rx=".54098"/>
   <rect x="154.15" y="11.36" width="5.4098" height="5.4098" rx=".54098"/>
   <rect x="164.97" y="8.6556" width="23.288" height="10.82"/>
  </g>
  <g fill="#EAECF0">
   <rect x="8.6558" y="28.131" width="127.06" height="5.4098" rx=".54098"/>
   <rect x="8.6558" y="37.328" width="127.06" height="5.4098" rx=".54098"/>
   <rect x="8.6558" y="46.524" width="90.885" height="5.4098" rx=".54098"/>
   <rect x="8.6558" y="60.59" width="127.06" height="5.4098" rx=".54098"/>
   <rect x="8.6558" y="69.787" width="65.407" height="5.4098" rx=".54098"/>
   <rect x="8.6558" y="83.852" width="127.06" height="5.4098" rx=".54098"/>
   <rect x="8.6558" y="93.049" width="127.06" height="5.4098" rx=".54098"/>
   <rect x="8.6558" y="102.25" width="90.885" height="5.4098" rx=".54098"/>
   <rect x="8.6558" y="116.31" width="127.06" height="5.4098" rx=".54098"/>
   <rect x="8.6558" y="125.51" width="127.06" height="5.4098" rx=".54098"/>
   <rect x="8.6558" y="134.7" width="108.2" height="5.4098" rx=".54098"/>
   <rect x="144.37" y="28.131" width="43.893" height="135.01" rx=".54098"/>
  </g>
  <rect x="196.09" y="28.381" width="59.008" height="10.32" rx=".81582" fill="#fff"/>
  <rect x="196.09" y="28.381" width="59.008" height="10.32" rx=".81582" stroke="#DADDE3" stroke-width=".5"/>
  <path d="m201.49 35.636c0 0.1286 0.104 0.2329 0.232 0.2329h0.466c0.129 0 0.233-0.1043 0.233-0.2329v-0.2329h-0.931v0.2329zm2.095-2.7943c0-0.7357-0.493-1.3801-1.203-1.5728-0.71-0.1928-1.461 0.1139-1.833 0.7485s-0.273 1.4398 0.242 1.9653c0 0 0.466 0.489 0.466 0.7219v0.2328c0 0.1286 0.104 0.2329 0.233 0.2329h0.931c0.129 0 0.233-0.1043 0.233-0.2329v-0.2328c0-0.2329 0.466-0.7219 0.466-0.7219 0.298-0.3047 0.465-0.7144 0.465-1.141z" clip-rule="evenodd" fill="#36c" fill-rule="evenodd"/>
  <rect x="206.4" y="31.409" width="19.475" height="4.2633" rx=".54098" fill="#DADDE3"/>
  <g filter="url(#filter0_d_2340_32807)">
   <rect x="195.84" y="93.049" width="59.508" height="35.465" rx=".32459" fill="#fff" shape-rendering="crispEdges"/>
   <rect x="195.59" y="92.799" width="60.008" height="35.965" rx=".57459" shape-rendering="crispEdges" stroke="#6485D1" stroke-width=".5"/>
   <path d="m201.49 101.26c0 0.129 0.104 0.233 0.233 0.233h0.466c0.128 0 0.233-0.104 0.233-0.233v-0.233h-0.932v0.233zm2.096-2.7941c0-0.7357-0.493-1.3801-1.203-1.5729-0.71-0.1927-1.461 0.114-1.833 0.7486s-0.273 1.4398 0.242 1.9653c0 0 0.465 0.4891 0.465 0.7221v0.233c0 0.128 0.104 0.232 0.233 0.232h0.932c0.128 0 0.232-0.104 0.232-0.232v-0.233c0-0.233 0.466-0.7221 0.466-0.7221 0.299-0.3048 0.466-0.7144 0.466-1.141z" clip-rule="evenodd" fill="#36c" fill-rule="evenodd"/>
   <g fill="#DADDE3">
    <rect x="206.4" y="97.033" width="27.127" height="4.2633" rx=".41645"/>
    <rect x="199.62" y="105.66" width="51.934" height="4.2633" rx=".41645"/>
    <rect x="199.62" y="112.04" width="41.9" height="4.2633" rx=".41645"/>
    <rect x="199.62" y="120.46" width="14.236" height="4.2633" rx=".41645"/>
    <rect x="215.98" y="120.46" width="14.236" height="4.2633" rx=".41645"/>
   </g>
  </g>
  <g style="mix-blend-mode:multiply">
   <mask id="path-38-inside-2_2340_32807" fill="white">
    <path d="m4.8398 28.131h130.92v23.803h-130.92v-23.803z"/>
   </mask>
   <path d="m4.8398 51.934h1v-23.803h-2v23.803h1z" fill="#36c" mask="url(#path-38-inside-2_2340_32807)"/>
   <g style="mix-blend-mode:multiply">
    <path d="m8.4932 28.672c0-0.2988 0.24221-0.541 0.54099-0.541h126.18c0.298 0 0.541 0.2422 0.541 0.541v22.721c0 0.2988-0.243 0.541-0.541 0.541h-126.18c-0.29878 0-0.54099-0.2422-0.54099-0.541v-22.721z" fill="#EAECF0" fill-opacity=".4"/>
   </g>
   <mask id="path-41-inside-3_2340_32807" fill="white">
    <path d="m4.8398 83.958h130.92v23.804h-130.92v-23.804z"/>
   </mask>
   <path d="m4.8398 107.76h1v-23.804h-2v23.804h1z" fill="#36c" mask="url(#path-41-inside-3_2340_32807)"/>
   <path d="m8.4932 84.499c0-0.2988 0.24221-0.541 0.54099-0.541h126.18c0.298 0 0.541 0.2422 0.541 0.541v22.722c0 0.298-0.243 0.541-0.541 0.541h-126.18c-0.29878 0-0.54099-0.243-0.54099-0.541v-22.722z" fill="#E8EEFF"/>
  </g>
 </g>
 <path d="m46.228 153.13c0.7824-0.614 1.8815-0.621 2.6709-0.016l11.14 8.544c0.0643 0.05 0.1546 0.05 0.2187 0l10.999-8.528c0.7958-0.617 1.9113-0.608 2.6973 0.021l10.585 8.478c0.0657 0.052 0.1595 0.051 0.2246-2e-3l10.322-8.442c0.7992-0.654 1.9475-0.658 2.75-8e-3l10.437 8.448c0.066 0.053 0.161 0.053 0.226-1e-3l10.328-8.441c0.748-0.612 1.801-0.654 2.591-0.124l0.154 0.114 10.498 8.455c0.066 0.053 0.16 0.053 0.225 0l10.421-8.467c0.782-0.635 1.897-0.652 2.697-0.04l11.149 8.526c0.065 0.05 0.156 0.048 0.22-3e-3l10.44-8.483c0.781-0.635 1.897-0.651 2.697-0.04l11.124 8.507c0.067 0.051 0.162 0.048 0.226-7e-3l9.717-8.422c0.756-0.655 1.862-0.712 2.68-0.136l12.231 8.594c0.068 0.047 0.158 0.043 0.22-0.01l9.728-8.432c0.772-0.669 1.906-0.712 2.726-0.103l11.477 8.527c0.067 0.049 0.16 0.046 0.223-9e-3l9.677-8.387c0.799-0.692 1.98-0.71 2.8-0.044l10.334 8.396c0.068 0.055 0.166 0.052 0.231-6e-3l9.627-8.631c0.038-0.034 0.06-0.082 0.06-0.133v-151.65c0-0.09864-0.08-0.17871-0.179-0.17871h-261.64c-0.0986 0-0.17871 0.08007-0.17871 0.17871v151.62c8e-5 0.052 0.02319 0.103 0.06348 0.137l10.307 8.643c0.0681 0.057 0.1672 0.055 0.2334-4e-3l9.291-8.329c0.7711-0.691 1.9218-0.743 2.753-0.126l11.5 8.543c0.0645 0.048 0.1535 0.047 0.2168-3e-3l10.864-8.533zm217.77-0.305-7e-3 0.124c-0.03 0.289-0.166 0.557-0.385 0.753l-9.627 8.632-0.084 0.067c-0.399 0.298-0.945 0.312-1.359 0.034l-0.087-0.064-10.333-8.396c-0.444-0.361-1.083-0.351-1.515 0.024l-9.677 8.387-0.08 0.063c-0.386 0.28-0.904 0.3-1.31 0.05l-0.085-0.058-11.476-8.525c-0.444-0.33-1.057-0.307-1.475 0.055l-9.729 8.431-0.078 0.063c-0.404 0.294-0.956 0.302-1.371 0.011l-12.231-8.595c-0.443-0.311-1.04-0.281-1.449 0.073l-9.718 8.423-0.082 0.064c-0.418 0.303-0.99 0.299-1.406-0.019l-11.124-8.506c-0.433-0.331-1.037-0.322-1.459 0.022l-10.44 8.481-0.081 0.061c-0.389 0.264-0.899 0.272-1.295 0.019l-0.083-0.059-11.148-8.524c-0.433-0.331-1.036-0.322-1.459 0.022l-10.421 8.466-0.083 0.062c-0.397 0.268-0.919 0.27-1.317 3e-3l-0.083-0.062-10.498-8.456c-0.434-0.349-1.054-0.347-1.485 5e-3l-10.328 8.442c-0.405 0.332-0.976 0.354-1.403 0.066l-0.084-0.062-10.439-8.448c-0.4341-0.351-1.0552-0.349-1.4873 4e-3l-10.322 8.443-0.083 0.062c-0.3961 0.27-0.9176 0.273-1.3164 7e-3l-0.083-0.061-10.585-8.477c-0.4251-0.341-1.0285-0.346-1.459-0.012l-11 8.528c-0.4232 0.328-1.0145 0.33-1.4394 4e-3l-11.14-8.544c-0.4271-0.327-1.022-0.324-1.4453 8e-3l-10.863 8.533-0.0801 0.058c-0.3831 0.252-0.8797 0.259-1.2695 0.017l-0.081-0.055-11.501-8.543c-0.4497-0.334-1.0722-0.306-1.4893 0.068l-9.29 8.329-0.084 0.069c-0.4047 0.301-0.9584 0.31-1.373 0.023l-0.087-0.066-10.307-8.645c-0.23328-0.196-0.38082-0.473-0.41406-0.772l-0.0068359-0.13v-151.62c0-0.61009 0.46351-1.1123 1.0576-1.1729l0.12109-0.0058594h261.64c0.651 0 1.179 0.5278 1.179 1.1787v151.65z" fill="#EAECF0"/>
 <defs>
  <filter id="filter0_d_2340_32807" x="194.34" y="92.549" width="62.508" height="38.465" color-interpolation-filters="sRGB" filterUnits="userSpaceOnUse">
   <feFlood flood-opacity="0" result="BackgroundImageFix"/>
   <feColorMatrix in="SourceAlpha" result="hardAlpha" values="0 0 0 0 0 0 0 0 0 0 0 0 0 0 0 0 0 0 127 0"/>
   <feOffset dy="1"/>
   <feGaussianBlur stdDeviation="0.5"/>
   <feComposite in2="hardAlpha" operator="out"/>
   <feColorMatrix values="0 0 0 0 0 0 0 0 0 0 0 0 0 0 0 0 0 0 0.06 0"/>
   <feBlend in2="BackgroundImageFix" result="effect1_dropShadow_2340_32807"/>
   <feBlend in="SourceGraphic" in2="effect1_dropShadow_2340_32807" result="shape"/>
  </filter>
 </defs>
</svg>
